<?xml version="1.0" encoding="UTF-8"?>
<svg version="1.1" viewBox="0 0 1024 1024" width="1024" height="1024" xmlns="http://www.w3.org/2000/svg">
<path transform="translate(0)" d="m0 0h1024v1024h-1024z" fill="#F6F6F7"/>
<path transform="translate(594,465)" d="m0 0h2v25l-3 1-4-9-6-7-10-5h-12l-8 4-7 8-3 7-1 10 6 6-1 21 2 7 4 5 7 4 4 1h15l7-2-1-23-1-3-8-3v-2h30v2l-6 2-1 2-1 30-3 1-1-4-10 3-10 2h-15l-15-4-1 3h-6v-41l-4-2-18-18h-3l-1 3-8 7-6 6h-2l1 42 6 1-1 2h-23l-1-2 5-2 1-2v-36l-3-6-5-2-10 2-5 6-1 4v27l1 8 5 1v2h-24v-2l5-2 1-2v-42l-1-3-5-2v-2l17-1v10h2l2-4 9-6 3-1h9l8 4 17-16 6-5 7 6 9 8 7-9 8-7 10-4 4-1h19l14 3z" fill="#909285"/>
<path transform="translate(138,467)" d="m0 0h29l-1 2-5 2-1 7 9 31 5 17 6-16 14-40 1-3h6l20 58 2-3 12-39 1-9-1-4-6-1v-2h23v2l-6 3-5 10-16 50-5 15-4-1-7-19-7-20-8-22-16 45-5 15-1 2-4-1-16-51-7-21-4-4-3-1z" fill="#909285"/>
<path transform="translate(333,461)" d="m0 0h1l1 40 9-8 7-3h9l6 3 4 5 2 5 1 38 3 3 4 2-1 1h-24l-1-2 5-2 1-1v-38l-4-6-9-1-6 3-5 6-1 5v27l1 5 6 2-1 2h-25v-2l6-3 1-12v-58l-2-4-5-1v-2l13-3z" fill="#909285"/>
<path transform="translate(412,490)" d="m0 0 9 1 8 5 4 5 3 9v6l-1 1h-37l3 13 5 7 8 4h8l7-3 5-4 1 2-6 7-7 4-4 1h-9l-11-4-8-9-3-10v-9l3-10 4-6 7-6 6-3z" fill="#909285"/>
<path transform="translate(275,493)" d="m0 0h8l7 4 5 10 1 4v18l-4 10-5 5-2 1h-10l-6-4-5-10-1-4v-17l4-11 5-5z" fill="#F7F7F8"/>
<path transform="translate(648,492)" d="m0 0h16l1 42 3 6 2 1h9l7-4 3-4 1-6v-31l-7-2 4-2h14v20l1 30h8l-4 4-10 2-4-2-2-9-7 7-5 3-4 1h-7l-8-3-4-5-2-5-1-39-7-2z" fill="#909285"/>
<path transform="translate(278,490)" d="m0 0 10 1 10 5 7 8 3 7v15l-4 9-6 7-10 5-4 1h-10l-10-4-8-7-5-10v-14l4-10 4-5 10-6zm-3 3-5 3-4 5-3 9v17l4 11 4 5 4 2h10l4-2 6-10 1-4v-18l-4-11-5-5-4-2z" fill="#909285"/>
<path transform="translate(726,488)" d="m0 0 5 4 3 7 2 2-1 10v23l12 2 3-1-2 6-6 5-5 2h-11l-8-5-4-5-2-5h6v-20-2l-1-11h4l1-7z" fill="#909285"/>
<path transform="translate(627,462)" d="m0 0h5l1 78 4 4 3 1v2h-27v-2l7-3 1-45v-25l-1-4-6-2 3-2z" fill="#909285"/>
<path transform="translate(826,462)" d="m0 0h5l1 59v19l1 3 5 2-1 2h-22l-2-2 6-3 1-29v-45l-7-2 4-2z" fill="#909285"/>
<path transform="translate(785,490)" d="m0 0 10 1 8 5 2 3v7l-4 4-7-1-2-3v-6l1-4-3-2h-10l-6 4-4 7-2 8v8l3 10 7 8 4 2h12l6-3 5-4v3l-4 5-9 5-4 1h-9l-11-4-8-8-4-10v-11l4-11 6-7 6-4z" fill="#909285"/>
<path transform="translate(849,492)" d="m0 0h22l-1 2-9 3-14 13-3 3 9 11 11 12 4 5 7 4v2h-24v-3h4l-8-10-12-14-2-2 5-4 5-5 9-10 1-3-4-2z" fill="#909285"/>
<path transform="translate(507,518)" d="m0 0h15l1 1v27l-1 1h-14l-1-1z" fill="#909285"/>
<path transform="translate(409,493)" d="m0 0 8 1 5 5 2 6v8h-25v-7l5-10z" fill="#F7F7F8"/>
<path transform="translate(663,467)" d="m0 0 7 1v2h2v7l-3 4h-7l-2-1v-2h-2v-6l2-4z" fill="#909285"/>
<path transform="translate(686,467)" d="m0 0h6l4 5-1 6-4 3-7-1-3-5 2-6z" fill="#909285"/>
</svg>
